**ABCDEFGHIJKLMNOPQRSTUVWXYZabcdefghijklmnopqrstuvwxyz**************************
**PARASOLID !"#$%&'()*+,-./:;<=>?@[\]^_`{|}~0123456789**************************
**PART1;
MC=AMD64;
MC_MODEL=Intel64 Family 6 Model 122 Stepping 1, GenuineIntel;
MC_ID=unknown;
OS=Windows_NT;
OS_RELEASE=unknown;
FRU=Parasolid Version 30.0, build 298, 12-15-2017;
APPL=SOLIDWORKS 2018-2018134;
SITE=;
USER=unknown;
FORMAT=text;
GUISE=transmit;
KEY=Open Ended Spanner;
FILE=Open Ended Spanner.x_t;
DATE=Sat Sep  4 20:43:35 2021;
**PART2;
SCH=SCH_3000298_30000;
USFLD_SIZE=0;
**PART3;
**END_OF_HEADER*****************************************************************
T51 : TRANSMIT FILE created by modeller version 300029823 SCH_3000298_30000_1300
6205 0 12 33 CCCCCCI4 mesh1006 0 I8 polyline1008 0 CCCCCCCDI5 owner1040 0 CCCCCC
I13 boundary_mesh1006 0 I17 boundary_polyline1008 0 CCCA16 index_map_offset0 0 1
 dA9 index_map82 0 A17 node_id_index_map82 0 A20 schema_embedding_map82 0 A5 chi
ld12 0 A14 lowest_node_id0 0 1 dZ1 850 0 2 0 0 0 0 0 0 1e3 1e-8 0 3 0 1 0 1 1 4
 5 6 7 0 0 8 9 10 0 0 0 0 0 0 70 11 CI9 list_type0 0 1 uI10 notransmit0 0 1 lCCC
DCCDI12 finger_index0 0 1 dI12 finger_block1012 0 CZ2 0 4 T1 0 0 2 20 1 11 11 13
 255 4 174 0 1 0 12 0 0 13 0 51 255 5 596 0 14 15 0 0 +.534557827746039 -.016139
3106575173 .04 0 0 -1 .015 -1 0 0 30 255 6 551 0 9 16 0 0 -.535727242499887 -.03
109365681953595 .04 0 0 -1 29 255 7 538 0 10 17 0 .535727242499887 -.03109365681
953595 .04 19 8 CCCCCCCA5 owner12 0 Z8 52 0 1 13 0 18 V0 16 255 9 549 0 ?19 0 20
 6 0 0 1 18 255 10 536 0 19 0 21 7 ?1 17 255 19 0 22 23 24 10 25 9 0 26 +18 21 5
23 0 27 10 28 17 ?1 17 27 0 29 30 31 21 32 33 0 34 +18 28 520 0 35 21 36 37 ?1 2
9 17 525 0 21 37 7 .549865918345848 .01597157341823795 .04 29 37 522 0 28 38 17
 .549557140449969 -.01628290177745505 .04 29 38 509 0 36 39 37 .535727242499887
 -.03109365681953595 0 18 36 507 0 40 28 41 38 ?1 29 39 506 0 41 42 38 .54986591
8345848 .01597157341823795 0 18 41 504 0 43 36 44 39 ?1 29 42 503 0 44 45 39 .54
9557140449969 -.01628290177745505 0 18 44 501 0 46 41 47 42 ?1 29 45 495 0 47 48
 42 .536036020395767 .03106951070019435 .04 18 47 493 0 49 44 50 45 ?1 29 48 492
 0 50 51 45 .536036020395767 .03106951070019435 0 18 50 490 0 52 47 53 48 ?1 29
 51 400 0 53 54 48 .179030249643147 .0589870011075937 .04 18 53 398 0 55 50 56 5
1 ?1 29 54 397 0 56 57 51 .179030249643147 .0589870011075937 0 18 56 395 0 58 53
 59 54 ?1 29 57 389 0 59 60 54 .0623507193921616 .1083643164359226 .04 18 59 387
 0 61 56 62 57 ?1 29 60 386 0 62 63 57 .0623507193921616 .1083643164359226 0 18
 62 384 0 64 59 65 60 ?1 29 63 378 0 65 66 60 .0738878644452589 -.12040307560977
24 0 18 65 376 0 67 62 68 63 ?1 29 66 375 0 68 69 63 .0738878644452589 -.1204030
756097724 .04 18 68 373 0 70 65 71 66 ?1 29 69 367 0 71 72 66 .204988826012616 -
.0569570666747227 .04 18 71 365 0 73 68 74 69 ?1 29 72 364 0 74 75 69 .204988826
012616 -.0569570666747227 0 18 74 362 0 76 71 77 72 ?1 29 75 277 0 77 78 72 -.18
4814851245065 .04417150418672045 .04 18 77 275 0 79 74 80 75 ?1 29 78 274 0 80 8
1 75 -.190710310479854 .050957520103578 .04 18 80 272 0 82 77 83 78 ?1 29 81 266
 0 83 84 78 -.1379686040815096 -.1306610703716012 .04 18 83 264 0 85 80 86 81 ?1
 29 84 253 0 86 87 81 -.190710310479854 .050957520103578 0 18 86 251 0 88 83 89
 84 ?1 29 87 250 0 89 90 84 -.184814851245065 .04417150418672045 0 18 89 248 0 9
1 86 92 87 ?1 29 90 247 0 92 93 87 -.1379686040815096 -.1306610703716012 0 18 92
 245 0 94 89 95 90 ?1 29 93 239 0 95 96 90 -.1396812135873836 -.13948566216348 .
04 18 95 237 0 97 92 98 93 ?1 29 96 236 0 98 99 93 -.1396812135873836 -.13948566
216348 0 18 98 234 0 100 95 101 96 ?1 29 99 129 0 102 103 96 -.0163711205040417
 -.0980791228453628 0 18 102 112 0 104 105 106 99 ?1 29 103 130 0 106 107 99 -.0
632173676675969 .0767534517129589 0 18 106 113 0 108 102 0 103 ?1 29 107 42 0 10
1 109 103 -.0163711205040417 -.0980791228453628 .04 18 101 40 0 110 98 105 107 ?
1 29 109 39 0 105 0 107 -.0632173676675969 .0767534517129589 .04 18 105 37 0 111
 101 102 109 ?1 17 111 0 112 110 79 105 113 114 0 115 +15 255 112 3 0 34 116 0 1
7 110 0 112 117 111 101 118 119 0 120 +17 79 0 112 111 82 77 121 122 0 113 +17 1
13 0 123 124 115 77 111 114 0 125 -16 114 276 0 ?111 119 126 127 0 0 1 17 115 0
 123 113 108 105 128 129 0 118 -15 123 150 0 113 130 0 17 108 0 123 115 124 106
 131 132 0 128 +17 128 0 133 104 118 106 115 129 0 134 +16 129 138 0 ?128 135 13
6 137 0 0 1 17 118 0 133 128 120 105 110 119 0 0 -15 133 148 0 104 138 0 17 120
 0 133 118 104 101 139 136 0 140 -16 119 16 0 ?110 141 114 142 0 0 1 16 141 19 0
 ?117 143 119 144 0 0 1 31 255 142 17 0 119 127 144 0 +-.1159110991546884 -.0310
5828541230175 .04 0 0 -1 -1 0 0 .12 30 127 14 0 114 145 142 0 +-.194339846128710
5 .041619289499737 .04 .96592582628907 .2588190451025145 0 30 144 20 0 141 142 1
46 0 +-.1474935989651554 -.1332132850585846 .04 -.96592582628907 -.2588190451025
15 0 31 146 23 0 143 144 147 0 +-.04346666218300815 -.01164685702961316 .04 0 0
 1 1 0 0 .16 16 143 238 0 ?148 149 141 146 0 0 1 30 147 26 0 149 146 150 0 +.549
425609201813 -.03002245838990875 .04 .996956410801243 .0779609835898842 0 16 149
 366 0 ?26 136 143 147 0 0 1 30 150 125 0 151 147 152 0 +.55 .02997754161009125
 0 .00957274132918522 .999954180261998 0 16 151 502 0 ?31 153 0 150 0 0 1 30 152
 124 0 153 150 154 0 +.0967492438855611 .0654212925872692 0 -.996956410801243 .0
779609835898843 0 16 153 491 0 ?58 155 151 152 0 0 1 31 154 123 0 155 152 156 0
 +-.04346666218300815 -.01164685702961316 0 0 0 1 1 0 0 .16 16 155 385 0 ?88 132
 153 154 0 0 1 30 156 122 0 132 154 157 0 +-.1943398461287105 .041619289499737 0
 .96592582628907 .2588190451025145 0 16 132 249 0 ?108 158 155 156 0 0 1 31 157
 121 0 158 156 159 0 +-.1159110991546884 -.03105828541230175 0 0 0 -1 -1 0 0 .12
 16 158 89 0 ?104 160 132 157 0 0 1 30 159 120 0 160 157 161 0 +-.14749359896515
54 -.1332132850585846 0 -.96592582628907 -.258819045102515 0 16 160 85 0 ?162 16
3 158 159 0 0 1 31 161 119 0 163 159 164 0 +-.04346666218300815 -.01164685702961
316 0 0 0 1 1 0 0 .16 16 163 235 0 ?165 166 160 161 0 0 1 30 164 118 0 166 161 1
67 0 +.549425609201813 -.03002245838990875 0 .996956410801243 .0779609835898842
 0 16 166 363 0 ?24 168 163 164 0 0 1 30 167 169 0 136 164 137 0 +-.016371120504
0417 -.0980791228453628 .04 0 0 -1 16 136 137 0 ?139 129 149 167 0 0 1 30 137 17
0 0 129 167 169 0 +-.0632173676675969 .0767534517129589 .04 0 0 -1 30 169 242 0
 135 137 170 0 +-.1396812135873836 -.13948566216348 .04 0 0 -1 16 135 240 0 ?171
 172 129 169 0 0 1 31 170 256 0 172 169 173 0 --.1861089464705775 .0490011333181
658 0 0 0 1 1 0 0 .005 16 172 254 0 ?174 175 135 170 0 0 1 31 173 261 0 175 170
 176 0 --.136674508855997 -.1354906995030466 0 0 0 1 1 0 0 .005 16 175 259 0 ?94
 177 172 173 0 0 1 30 176 269 0 177 173 178 0 --.1379686040815096 -.130661070371
6012 .04 0 0 -1 16 177 267 0 ?85 122 175 176 0 0 1 31 178 280 0 122 176 179 0 +-
.1861089464705775 .0490011333181658 .04 0 0 1 1 0 0 .005 16 122 278 0 ?79 180 17
7 178 0 0 1 31 179 285 0 180 178 181 0 +-.136674508855997 -.1354906995030466 .04
 0 0 1 1 0 0 .005 16 180 283 0 ?97 182 122 179 0 0 1 30 181 290 0 182 179 183 0
 +-.184814851245065 .04417150418672045 .04 0 0 -1 16 182 288 0 ?124 184 180 181
 0 0 1 30 183 295 0 184 181 185 0 --.190710310479854 .0509575201035781 .04 0 0 -
1 16 184 293 0 ?186 187 182 183 0 0 1 30 185 370 0 187 183 188 0 -.2049888260126
16 -.0569570666747227 0 0 0 1 16 187 368 0 ?189 190 184 185 0 0 1 30 188 381 0 1
90 185 191 0 -.0738878644452589 -.1204030756097724 .04 0 0 -1 16 190 379 0 ?70 1
92 187 188 0 0 1 30 191 392 0 192 188 193 0 +.0623507193921616 .1083643164359226
 .04 0 0 -1 16 192 390 0 ?194 195 190 191 0 0 1 30 193 403 0 195 191 196 0 +.179
030249643147 .0589870011075937 .04 0 0 1 16 195 401 0 ?197 198 192 193 0 0 1 31
 196 422 0 198 193 199 0 +.2205810227305925 -.2563483488349715 0 0 0 1 1 0 0 .2
 16 198 406 0 ?67 200 195 196 0 0 1 31 199 423 0 200 196 201 0 -.220581022730592
5 -.2563483488349715 .04 0 0 1 1 0 0 .2 16 200 410 0 ?73 202 198 199 0 0 1 31 20
1 424 0 202 199 203 0 +.1946224463611235 .2583782832678425 0 0 0 1 1 0 0 .2 16 2
02 414 0 ?204 205 200 201 0 0 1 31 203 425 0 205 201 206 0 -.1946224463611235 .2
583782832678425 .04 0 0 1 1 0 0 .2 16 205 418 0 ?61 207 202 203 0 0 1 30 206 498
 0 207 203 208 0 +.536036020395767 .03106951070019435 .04 0 0 -1 16 207 496 0 ?2
09 210 205 206 0 0 1 31 208 512 0 210 206 211 0 -.534557827746039 -.016139310657
5173 0 0 0 1 1 0 0 .015 16 210 510 0 ?40 212 207 208 0 0 1 31 211 517 0 212 208
 213 0 -.534866605641919 .0161151645381757 0 0 0 1 1 0 0 .015 16 212 515 0 ?43 2
14 210 211 0 0 1 30 213 528 0 214 211 215 0 +.549557140449969 -.0162829017774550
5 .04 0 0 -1 16 214 526 0 ?216 33 212 213 0 0 1 30 215 533 0 33 213 217 0 -.5498
65918345848 .01597157341823795 .04 0 0 -1 16 33 531 0 ?27 218 214 215 0 0 1 31 2
17 541 0 218 215 16 0 +.534557827746039 -.0161393106575173 .04 0 0 1 1 0 0 .015
 16 218 539 0 ?35 20 33 217 0 0 1 31 16 546 0 20 217 6 0 +.534866605641919 .0161
151645381757 .04 0 0 1 1 0 0 .015 16 20 544 0 ?49 9 218 16 0 0 1 17 49 0 112 55
 34 47 219 20 0 220 +17 55 0 112 61 49 53 220 221 0 197 +17 34 0 112 49 35 21 30
 168 0 219 +17 219 0 222 32 223 21 49 20 0 0 -17 220 0 224 209 197 47 55 221 0 2
23 -15 224 154 0 220 225 0 17 209 0 224 58 220 50 223 207 0 226 +17 197 0 224 22
0 58 53 227 195 0 228 +16 221 494 0 ?55 126 168 229 0 0 1 17 223 0 222 219 52 47
 209 207 0 0 -15 222 564 0 219 230 0 17 52 0 222 223 32 50 43 212 0 209 -17 32 0
 222 52 219 41 27 33 0 0 -17 43 0 231 232 226 41 52 212 0 31 +15 231 76 0 226 23
3 0 17 232 0 231 40 43 44 31 151 0 0 -17 226 0 231 43 204 50 58 153 0 0 -17 31 0
 29 27 216 41 232 151 0 32 +15 29 156 0 31 12 0 17 216 0 29 31 30 44 234 214 0 2
32 +17 30 0 29 216 27 28 34 168 0 234 -17 234 0 235 236 46 28 216 214 0 0 -15 23
5 585 0 236 14 0 17 236 0 235 25 234 10 35 218 0 0 -17 46 0 235 234 25 44 40 210
 0 216 -17 25 0 235 46 236 36 19 9 0 0 -17 40 0 231 237 232 36 46 210 0 24 +17 2
37 0 231 67 40 74 24 166 0 0 -17 24 0 22 19 189 36 237 166 0 25 +15 22 142 0 24
 238 0 17 189 0 22 24 23 74 239 187 0 237 +17 23 0 22 189 19 71 26 149 0 239 -17
 239 0 240 241 76 71 189 187 0 0 -15 240 436 0 241 242 0 17 241 0 240 243 239 68
 73 200 0 0 -17 76 0 240 239 243 74 67 198 0 189 -17 243 0 240 76 241 65 70 190
 0 0 -17 67 0 231 244 237 65 76 198 0 165 +17 244 0 231 94 67 98 165 163 0 0 -17
 165 0 245 70 171 65 244 163 0 243 +15 245 144 0 165 246 0 17 70 0 245 247 165 6
8 243 190 0 148 +17 171 0 245 165 247 98 248 135 0 244 +17 247 0 245 171 70 95 1
48 143 0 248 -17 248 0 249 250 100 95 171 135 0 0 -15 249 308 0 250 251 0 17 250
 0 249 252 248 83 97 180 0 0 -17 100 0 249 248 252 98 94 175 0 171 -17 252 0 249
 100 250 92 85 177 0 0 -17 94 0 231 253 244 92 100 175 0 162 +17 253 0 231 134 9
4 102 162 160 0 0 -17 162 0 254 85 139 92 253 160 0 252 +15 254 146 0 162 255 0
 17 85 0 254 140 162 83 252 177 0 117 +17 139 0 254 162 140 102 120 136 0 253 +1
7 140 0 254 139 85 101 117 141 0 0 -17 117 0 112 97 110 83 140 141 0 250 +17 97
 0 112 148 117 95 250 180 0 247 +17 148 0 112 73 97 68 247 143 0 241 +17 73 0 11
2 26 148 71 241 200 0 23 +17 26 0 112 35 73 10 23 149 0 236 +17 35 0 112 34 26 2
8 236 218 0 30 +14 255 255 147 256 ?246 138 254 4 257 -0 0 246 138 18 81 255 1 2
56 835 258 255 259 0 0 260 261 14 246 145 260 ?238 255 245 4 262 -0 0 238 255 18
 14 138 149 263 ?255 130 133 4 264 -0 0 255 130 18 50 255 257 160 0 255 262 264
 0 +-.1474935989651554 -.1332132850585846 .04 .258819045102515 -.96592582628907
 0 .96592582628907 .258819045102515 0 13 18 53 0 0 0 0 0 0 8 12 14 12 157 265 ?2
25 0 29 4 266 -0 0 225 0 18 81 1 265 838 258 12 267 0 263 268 269 14 225 155 268
 ?270 12 224 4 271 -0 0 270 12 18 50 266 165 0 12 271 272 0 +.55 .02997754161009
125 .04 -.999954180261998 .00957274132918522 0 -.00957274132918522 -.99995418026
1998 0 50 271 164 0 225 273 266 0 +.0967492438855611 .0654212925872692 .04 -.077
9609835898843 -.996956410801243 0 .996956410801244 -.0779609835898844 0 51 272 3
19 0 251 266 274 0 +-.136674508855997 -.1354906995030466 .04 0 0 -1 .005 -1 0 0
 14 251 307 275 ?276 233 249 4 272 +0 0 276 233 18 51 274 340 0 276 272 277 0 +-
.1861089464705775 .0490011333181658 .04 0 0 -1 .005 -1 0 0 14 276 328 278 ?242 2
51 279 4 274 +0 0 242 251 18 51 277 447 0 242 274 280 0 +.2205810227305925 -.256
3483488349715 .04 0 0 -1 .2 -1 0 0 14 242 435 281 ?282 276 240 4 277 -0 0 282 27
6 18 51 280 468 0 282 277 15 0 +.1946224463611235 .2583782832678425 .04 0 0 -1 .
2 -1 0 0 14 282 456 283 ?230 242 284 4 280 -0 0 230 242 18 51 15 575 0 230 280 5
 0 +.534866605641919 .0161151645381757 .04 0 0 -1 .015 -1 0 0 14 230 563 285 ?14
 282 222 4 15 +0 0 14 282 18 81 1 285 844 258 230 286 0 283 287 288 14 14 584 28
7 ?0 230 235 4 5 +0 0 0 230 18 81 1 287 845 258 14 289 0 285 290 291 80 255 1 25
8 292 293 9000 1 1 1 1 1 1 1 1 0 FFFFTFTFFFFFFF1 81 1 289 800 294 14 0 287 286 0
 295 81 1 290 846 258 233 296 0 287 297 298 82 255 1 291 -1850867600 14 233 75 2
90 ?251 116 231 4 299 -0 0 251 116 18 81 1 296 794 294 233 0 290 300 301 302 81
 1 297 847 258 116 300 0 290 303 304 82 1 298 1477902448 14 116 1 297 ?233 238 1
12 4 305 +0 0 233 238 18 81 1 300 793 294 116 0 297 306 296 307 81 1 303 848 258
 238 306 0 297 308 309 82 1 304 1467547760 14 238 143 303 ?116 246 22 4 310 -0 0
 116 246 18 81 1 306 792 294 238 0 303 311 300 312 81 1 308 849 258 270 313 0 30
3 314 315 82 1 309 1479606384 14 270 153 308 ?130 225 316 4 273 -0 0 130 225 18
 81 1 313 787 294 270 0 308 317 318 319 81 1 314 850 258 130 318 0 308 0 320 82
 1 315 1480917102 14 130 151 314 ?138 270 123 4 321 -0 0 138 270 18 81 1 318 788
 294 130 0 314 313 322 323 82 1 320 1480654956 80 1 294 0 324 8001 0 0 0 0 3 5 0
 0 0 FFFFTFTFFFFFFF2 81 1 322 789 294 138 0 263 318 259 325 83 255 3 323 .792156
862745098 .819607843137255 .933333333333333 81 1 263 837 258 138 322 0 260 265 3
26 81 1 259 790 294 255 0 256 322 311 327 83 3 325 .792156862745098 .81960784313
7255 .933333333333333 81 1 311 791 294 246 0 260 259 306 328 83 3 327 .792156862
745098 .819607843137255 .933333333333333 81 1 260 836 258 246 311 0 256 263 329
 83 3 328 .792156862745098 .819607843137255 .933333333333333 82 1 329 1479868526
 82 1 326 1480392810 79 255 15 324 SDL/TYSA_COLOUR50 321 162 0 130 264 273 0 +-.
1943398461287105 .041619289499737 .04 -.2588190451025145 .96592582628907 0 -.965
92582628907 -.2588190451025145 0 51 264 161 0 138 257 321 0 +-.1159110991546884
 -.03105828541230175 .04 0 0 -1 .12 -1 0 0 51 273 163 0 270 321 271 0 --.0434666
6218300815 -.01164685702961316 .04 0 0 -1 .16 -1 0 0 81 1 317 786 294 225 0 268
 267 313 330 83 3 319 .792156862745098 .819607843137255 .933333333333333 81 1 26
8 839 258 225 317 0 265 275 331 81 1 267 785 294 12 0 265 0 317 332 83 3 330 .79
2156862745098 .819607843137255 .933333333333333 83 3 332 .792156862745098 .81960
7843137255 .933333333333333 81 1 275 840 258 251 301 0 268 278 333 82 1 331 1481
179248 81 1 301 795 294 251 0 275 296 334 335 81 1 278 841 258 276 334 0 275 281
 336 82 1 333 1701576812 81 1 334 796 294 276 0 278 301 337 338 81 1 281 842 258
 242 337 0 278 283 339 82 1 336 1703542892 81 1 337 797 294 242 0 281 334 340 34
1 81 1 283 843 258 282 340 0 281 285 342 82 1 339 2075787374 81 1 340 798 294 28
2 0 283 337 286 343 82 1 342 2077753454 81 1 286 799 294 230 0 285 340 289 344 8
3 3 343 .792156862745098 .819607843137255 .933333333333333 83 3 344 .79215686274
5098 .819607843137255 .933333333333333 83 3 341 .792156862745098 .81960784313725
5 .933333333333333 83 3 338 .792156862745098 .819607843137255 .933333333333333 8
3 3 335 .792156862745098 .819607843137255 .933333333333333 15 316 152 0 345 270
 0 17 345 0 316 194 186 59 82 126 0 346 -17 194 0 316 88 345 62 346 192 0 347 +1
7 186 0 316 345 88 80 348 184 0 121 +17 82 0 112 79 61 80 345 126 0 186 +16 126
 388 0 ?82 114 221 145 0 0 1 17 346 0 284 228 64 59 194 192 0 0 -15 284 457 0 22
8 282 0 17 228 0 284 227 346 53 61 205 0 0 -17 64 0 284 346 227 62 204 202 0 194
 -17 227 0 284 64 228 56 197 195 0 0 -17 204 0 231 226 347 56 64 202 0 227 +17 3
47 0 231 204 174 62 88 155 0 0 -17 174 0 231 347 131 86 91 172 0 348 +17 88 0 31
6 186 194 86 347 155 0 174 +17 131 0 231 174 134 89 108 132 0 0 -17 91 0 279 125
 348 89 174 172 0 124 -17 348 0 279 91 121 86 186 184 0 0 -15 279 329 0 121 276
 0 17 121 0 279 348 125 80 79 122 0 0 -17 125 0 279 121 91 77 124 182 0 0 -17 12
4 0 123 108 113 89 125 182 0 131 +17 134 0 231 131 253 106 104 158 0 0 -17 104 0
 133 120 128 102 134 158 0 139 +17 61 0 112 82 55 59 228 205 0 345 +31 145 11 0
 126 229 127 0 +-.04346666218300815 -.01164685702961316 .04 0 0 1 1 0 0 .16 30 2
29 8 0 221 349 145 0 +.0967492438855611 .0654212925872692 .04 -.996956410801243
 .0779609835898843 0 30 349 5 0 168 0 229 0 +.55 .02997754161009125 .04 .0095727
4132918522 .999954180261998 0 16 168 521 0 ?34 221 166 349 0 0 1 83 3 312 .79215
6862745098 .819607843137255 .933333333333333 50 310 158 0 238 299 262 0 +.549425
609201813 -.03002245838990875 .04 -.0779609835898842 .996956410801244 0 -.996956
410801244 -.0779609835898842 0 50 299 117 0 233 305 310 0 +-.04346666218300815 -
.01164685702961316 0 0 0 1 1 0 0 51 262 159 0 246 310 257 0 --.04346666218300815
 -.01164685702961316 .04 0 0 -1 .16 -1 0 0 50 305 2 0 116 0 299 0 +-.04346666218
300815 -.01164685702961316 .04 0 0 1 1 0 0 83 3 307 .792156862745098 .8196078431
37255 .933333333333333 83 3 302 .792156862745098 .819607843137255 .9333333333333
33 83 3 295 .792156862745098 .819607843137255 .933333333333333 79 14 293 SWEntUn
changed82 1 288 -1852833680 82 1 269 1481441392 82 1 261 1480130668 17 58 0 224
 197 209 56 226 153 0 204 +19 13 175 0 1 0 8 4 S0 74 4 CI16 index_map_offset0 0
 1 dCCZ20 11 2 0 0 314 289 0 0 0 0 0 0 0 0 0 0 0 0 0 0 0 0 0 0 1 0 
