                                                                        S      1
,,,13Hpaperclip_big,22HAutodesk Inventor 2023,7Hunknown,32,38,7,99,15,, G      1
1.,2,2HMM,1,0.08,15H20230430.215421,0.01,10000.,7HNebojsa,,11,0,15H20230G      2
430.000000;                                                             G      3
     186       1                                                00000000D      1
     186            -111       1       0                               0D      2
     514       2                                                00010000D      3
     514                       1       1                               0D      4
     510       3                                                00010000D      5
     510            -111       1       1                               0D      6
     510       4                                                00010000D      7
     510            -111       1       1                               0D      8
     510       5                                                00010000D      9
     510            -111       1       1                               0D     10
     510       6                                                00010000D     11
     510            -111       1       1                               0D     12
     510       7                                                00010000D     13
     510            -111       1       1                               0D     14
     510       8                                                00010000D     15
     510            -111       1       1                               0D     16
     510       9                                                00010000D     17
     510            -111       1       1                               0D     18
     510      10                                                00010000D     19
     510            -111       1       1                               0D     20
     510      11                                                00010000D     21
     510            -111       1       1                               0D     22
     508      12                                                00010000D     23
     508                       2       1                               0D     24
     508      14                                                00010000D     25
     508                       2       1                               0D     26
     508      16                                                00010000D     27
     508                       2       1                               0D     28
     508      18                                                00010000D     29
     508                       2       1                               0D     30
     508      20                                                00010000D     31
     508                       2       1                               0D     32
     508      22                                                00010000D     33
     508                       2       1                               0D     34
     508      24                                                00010000D     35
     508                       2       1                               0D     36
     508      26                                                00010000D     37
     508                       1       1                               0D     38
     508      27                                                00010000D     39
     508                       1       1                               0D     40
     126      28                                                00010000D     41
     126       0               5       0                               0D     42
     126      33                                                00010000D     43
     126       0               7       0                               0D     44
     126      40                                                00010000D     45
     126       0               3       0                               0D     46
     126      43                                                00010000D     47
     126       0               7       0                               0D     48
     126      50                                                00010000D     49
     126       0               5       0                               0D     50
     126      55                                                00010000D     51
     126       0               8       0                               0D     52
     126      63                                                00010000D     53
     126       0               7       0                               0D     54
     126      70                                                00010000D     55
     126       0               5       0                               0D     56
     126      75                                                00010000D     57
     126       0               4       0                               0D     58
     126      79                                                00010000D     59
     126       0               8       0                               0D     60
     126      87                                                00010000D     61
     126       0               6       0                               0D     62
     126      93                                                00010000D     63
     126       0               9       0                               0D     64
     126     102                                                00010000D     65
     126       0               7       0                               0D     66
     126     109                                                00010000D     67
     126       0               5       0                               0D     68
     126     114                                                00010000D     69
     126       0               3       0                               0D     70
     126     117                                                00010000D     71
     126       0               7       0                               0D     72
     126     124                                                00010000D     73
     126       0               5       0                               0D     74
     126     129                                                00010000D     75
     126       0               7       0                               0D     76
     126     136                                                00010000D     77
     126       0               8       0                               0D     78
     126     144                                                00010000D     79
     126       0               6       0                               0D     80
     126     150                                                00010000D     81
     126       0               4       0                               0D     82
     126     154                                                00010000D     83
     126       0               7       0                               0D     84
     126     161                                                00010000D     85
     126       0               5       0                               0D     86
     128     166                                                00010000D     87
     128       0    -111      15       0                               0D     88
     128     181                                                00010000D     89
     128       0    -111      36       0                               0D     90
     128     217                                                00010000D     91
     128       0    -111      20       0                               0D     92
     128     237                                                00010000D     93
     128       0    -111      40       0                               0D     94
     128     277                                                00010000D     95
     128       0    -111      18       0                               0D     96
     128     295                                                00010000D     97
     128       0    -111      36       0                               0D     98
     128     331                                                00010000D     99
     128       0    -111      18       0                               0D    100
     128     349                                                00010000D    101
     128       0    -111       5       0                               0D    102
     128     354                                                00010000D    103
     128       0    -111       3       0                               0D    104
     502     357                                                00010000D    105
     502                       6       1                               0D    106
     504     363                                                00010001D    107
     504                       6       1                               0D    108
     406     369                                                00000000D    109
     406                       1      15                               0D    110
     314     370                                                00000200D    111
     314                       1       0                               0D    112
186,3,1,0,0,1,109;                                                     1P      1
514,9,5,1,7,1,9,1,11,1,13,1,15,1,17,1,19,1,21,1;                       3P      2
510,87,1,1,23;                                                         5P      3
510,89,1,1,25;                                                         7P      4
510,91,1,1,27;                                                         9P      5
510,93,1,1,29;                                                        11P      6
510,95,1,1,31;                                                        13P      7
510,97,1,1,33;                                                        15P      8
510,99,1,1,35;                                                        17P      9
510,101,1,1,37;                                                       19P     10
510,103,1,1,39;                                                       21P     11
508,6,0,107,1,0,0,0,107,2,0,0,0,107,3,1,0,0,107,4,1,0,0,107,5,1,      23P     12
0,0,107,3,0,0;                                                        23P     13
508,6,0,107,5,0,0,0,107,4,0,0,0,107,6,1,0,0,107,7,1,0,0,107,8,1,      25P     14
0,0,107,6,0,0;                                                        25P     15
508,6,0,107,8,0,0,0,107,7,0,0,0,107,9,1,0,0,107,10,1,0,0,107,11,      27P     16
1,0,0,107,9,0,0;                                                      27P     17
508,6,0,107,11,0,0,0,107,10,0,0,0,107,12,1,0,0,107,13,1,0,0,107,      29P     18
14,1,0,0,107,12,0,0;                                                  29P     19
508,6,0,107,14,0,0,0,107,13,0,0,0,107,15,1,0,0,107,16,1,0,0,107,      31P     20
17,1,0,0,107,15,0,0;                                                  31P     21
508,6,0,107,17,0,0,0,107,16,0,0,0,107,18,1,0,0,107,19,1,0,0,107,      33P     22
20,1,0,0,107,18,0,0;                                                  33P     23
508,6,0,107,20,0,0,0,107,19,0,0,0,107,21,1,0,0,107,22,1,0,0,107,      35P     24
23,1,0,0,107,21,0,0;                                                  35P     25
508,2,0,107,1,1,0,0,107,2,1,0;                                        37P     26
508,2,0,107,23,0,0,0,107,22,0,0;                                      39P     27
126,4,2,0,0,0,0,0.,0.,0.,1.5707963267949,1.5707963267949,             41P     28
3.14159265358979,3.14159265358979,3.14159265358979,1.,                41P     29
0.707106781186546,1.,0.707106781186546,1.,7.5,-20.5,0.,7.5,           41P     30
-20.5,0.75,6.75,-20.5,0.75,6.,-20.5,0.75,6.,-20.5,                    41P     31
9.18485099360515D-17,0.,3.14159265358979,0.,0.,0.;                    41P     32
126,4,2,0,0,0,0,3.14159265358979,3.14159265358979,                    43P     33
3.14159265358979,4.71238898038469,4.71238898038469,                   43P     34
6.28318530717959,6.28318530717959,6.28318530717959,1.,                43P     35
0.707106781186546,1.,0.707106781186546,1.,6.,-20.5,                   43P     36
9.18485099360515D-17,6.,-20.5,-0.75,6.75,-20.5,-0.75,7.5,-20.5,       43P     37
-0.75,7.5,-20.5,-1.83697019872103D-16,3.14159265358979,               43P     38
6.28318530717959,0.,0.,0.;                                            43P     39
126,1,1,0,0,1,0,-69.3333333333333,-69.3333333333333,                  45P     40
2.1742560440812D-16,2.1742560440812D-16,1.,1.,6.,-20.5,0.,6.,         45P     41
31.5,0.,-69.3333333333333,2.1742560440812D-16,0.,0.,0.;               45P     42
126,4,2,0,0,0,0,3.14159265358979,3.14159265358979,                    47P     43
3.14159265358979,4.71238898038469,4.71238898038469,                   47P     44
6.28318530717959,6.28318530717959,6.28318530717959,1.,                47P     45
0.707106781186549,1.,0.707106781186549,1.,6.,31.5,                    47P     46
9.18485099360515D-17,6.,31.5,-0.75,6.75,31.5,-0.75,7.5,31.5,          47P     47
-0.75,7.5,31.5,-1.83697019872103D-16,3.14159265358979,                47P     48
6.28318530717959,0.,0.,0.;                                            47P     49
126,4,2,0,0,0,0,0.,0.,0.,1.5707963267949,1.5707963267949,             49P     50
3.14159265358979,3.14159265358979,3.14159265358979,1.,                49P     51
0.707106781186549,1.,0.707106781186549,1.,7.5,31.5,0.,7.5,31.5,       49P     52
0.75,6.75,31.5,0.75,6.,31.5,0.75,6.,31.5,9.18485099360515D-17,        49P     53
0.,3.14159265358979,0.,0.,0.;                                         49P     54
126,4,2,0,0,0,0,-3.14159265358979,-3.14159265358979,                  51P     55
-3.14159265358979,-1.5707963267949,-1.5707963267949,                  51P     56
-5.9211894646675D-16,-5.9211894646675D-16,-5.9211894646675D-16,       51P     57
1.,0.707106781186548,1.,0.707106781186548,1.,6.,31.5,                 51P     58
9.18485099360515D-17,6.,37.5,9.18485099360515D-17,                    51P     59
1.11022302462516D-15,37.5,9.18485099360515D-17,-6.,37.5,              51P     60
9.18485099360515D-17,-6.,31.5,9.18485099360515D-17,                   51P     61
-3.14159265358979,-5.9211894646675D-16,0.,0.,0.;                      51P     62
126,4,2,0,0,0,0,3.14159265358979,3.14159265358979,                    53P     63
3.14159265358979,4.71238898038469,4.71238898038469,                   53P     64
6.28318530717959,6.28318530717959,6.28318530717959,1.,                53P     65
0.707106781186549,1.,0.707106781186549,1.,-6.,31.5,                   53P     66
9.18485099360515D-17,-6.,31.5,-0.75,-6.75,31.5,-0.75,-7.5,31.5,       53P     67
-0.75,-7.5,31.5,-1.83697019872103D-16,3.14159265358979,               53P     68
6.28318530717959,0.,0.,0.;                                            53P     69
126,4,2,0,0,0,0,0.,0.,0.,1.5707963267949,1.5707963267949,             55P     70
3.14159265358979,3.14159265358979,3.14159265358979,1.,                55P     71
0.707106781186549,1.,0.707106781186549,1.,-7.5,31.5,0.,-7.5,          55P     72
31.5,0.75,-6.75,31.5,0.75,-6.,31.5,0.75,-6.,31.5,                     55P     73
9.18485099360515D-17,0.,3.14159265358979,0.,0.,0.;                    55P     74
126,1,1,0,0,1,0,-85.1666666666666,-85.1666666666666,                  57P     75
2.52181926283114D-16,2.52181926283114D-16,1.,1.,-6.,31.5,0.,          57P     76
-6.00000000000001,-32.375,0.,-85.1666666666666,                       57P     77
2.52181926283114D-16,0.,0.,0.;                                        57P     78
126,4,2,0,0,0,0,3.14159265358979,3.14159265358979,                    59P     79
3.14159265358979,4.71238898038469,4.71238898038469,                   59P     80
6.28318530717959,6.28318530717959,6.28318530717959,1.,                59P     81
0.707106781186546,1.,0.707106781186546,1.,-6.00000000000001,          59P     82
-32.375,9.18485099360515D-17,-6.00000000000001,-32.375,-0.75,         59P     83
-6.75000000000001,-32.375,-0.75,-7.50000000000001,-32.375,-0.75,      59P     84
-7.50000000000001,-32.375,-1.83697019872103D-16,                      59P     85
3.14159265358979,6.28318530717959,0.,0.,0.;                           59P     86
126,4,2,0,0,0,0,0.,0.,0.,1.5707963267949,1.5707963267949,             61P     87
3.14159265358979,3.14159265358979,3.14159265358979,1.,                61P     88
0.707106781186546,1.,0.707106781186546,1.,-7.50000000000001,          61P     89
-32.375,0.,-7.50000000000001,-32.375,0.75,-6.75000000000001,          61P     90
-32.375,0.75,-6.00000000000001,-32.375,0.75,-6.00000000000001,        61P     91
-32.375,9.18485099360515D-17,0.,3.14159265358979,0.,0.,0.;            61P     92
126,4,2,0,0,0,0,-8.66515531414756D-16,-8.66515531414756D-16,          63P     93
-8.66515531414756D-16,1.5707963267949,1.5707963267949,                63P     94
3.14159265358979,3.14159265358979,3.14159265358979,1.,                63P     95
0.707106781186547,1.,0.707106781186547,1.,-6.00000000000001,          63P     96
-32.375,9.18485099360515D-17,-6.00000000000001,-37.5,                 63P     97
9.18485099360515D-17,-0.875000000000002,-37.5,                        63P     98
9.18485099360515D-17,4.25,-37.5,9.18485099360515D-17,4.25,            63P     99
-32.375,9.18485099360515D-17,-8.66515531414756D-16,                   63P    100
3.14159265358979,0.,0.,0.;                                            63P    101
126,4,2,0,0,0,0,3.14159265358979,3.14159265358979,                    65P    102
3.14159265358979,4.71238898038469,4.71238898038469,                   65P    103
6.28318530717959,6.28318530717959,6.28318530717959,1.,                65P    104
0.707106781186548,1.,0.707106781186546,1.,4.25,-32.375,               65P    105
9.18485099360515D-17,4.25,-32.375,-0.75,5.,-32.375,-0.75,5.75,        65P    106
-32.375,-0.75,5.75,-32.375,-1.83697019872103D-16,                     65P    107
3.14159265358979,6.28318530717959,0.,0.,0.;                           65P    108
126,4,2,0,0,0,0,0.,0.,0.,1.5707963267949,1.5707963267949,             67P    109
3.14159265358979,3.14159265358979,3.14159265358979,1.,                67P    110
0.707106781186546,1.,0.707106781186548,1.,5.75,-32.375,0.,5.75,       67P    111
-32.375,0.75,5.,-32.375,0.75,4.25,-32.375,0.75,4.25,-32.375,          67P    112
9.18485099360515D-17,0.,3.14159265358979,0.,0.,0.;                    67P    113
126,1,1,0,0,1,0,-66.1666666666666,-66.1666666666666,                  69P    114
7.69468277488716D-17,7.69468277488716D-17,1.,1.,4.25,-32.375,0.,      69P    115
4.25,17.25,0.,-66.1666666666666,7.69468277488716D-17,0.,0.,0.;        69P    116
126,4,2,0,0,0,0,3.14159265358979,3.14159265358979,                    71P    117
3.14159265358979,4.71238898038469,4.71238898038469,                   71P    118
6.28318530717959,6.28318530717959,6.28318530717959,1.,                71P    119
0.707106781186548,1.,0.707106781186546,1.,4.25,17.25,                 71P    120
9.18485099360515D-17,4.25,17.25,-0.75,5.,17.25,-0.75,5.75,17.25,      71P    121
-0.75,5.75,17.25,-1.83697019872103D-16,3.14159265358979,              71P    122
6.28318530717959,0.,0.,0.;                                            71P    123
126,4,2,0,0,0,0,0.,0.,0.,1.5707963267949,1.5707963267949,             73P    124
3.14159265358979,3.14159265358979,3.14159265358979,1.,                73P    125
0.707106781186546,1.,0.707106781186548,1.,5.75,17.25,0.,5.75,         73P    126
17.25,0.75,5.,17.25,0.75,4.25,17.25,0.75,4.25,17.25,                  73P    127
9.18485099360515D-17,0.,3.14159265358979,0.,0.,0.;                    73P    128
126,4,2,0,0,0,0,-3.14159265358979,-3.14159265358979,                  75P    129
-3.14159265358979,-1.5707963267949,-1.5707963267949,0.,0.,0.,1.,      75P    130
0.707106781186548,1.,0.707106781186548,1.,4.25,17.25,                 75P    131
9.18485099360515D-17,4.25,21.5,9.18485099360515D-17,                  75P    132
-3.95516952522712D-15,21.5,9.18485099360515D-17,                      75P    133
-4.25000000000001,21.5,9.18485099360515D-17,-4.25000000000001,        75P    134
17.25,9.18485099360515D-17,-3.14159265358979,0.,0.,0.,0.;             75P    135
126,4,2,0,0,0,0,3.14159265358979,3.14159265358979,                    77P    136
3.14159265358979,4.71238898038469,4.71238898038469,                   77P    137
6.28318530717959,6.28318530717959,6.28318530717959,1.,                77P    138
0.707106781186548,1.,0.707106781186546,1.,-4.25000000000001,          77P    139
17.25,9.18485099360515D-17,-4.25000000000001,17.25,-0.75,             77P    140
-5.00000000000001,17.25,-0.75,-5.75000000000001,17.25,-0.75,          77P    141
-5.75000000000001,17.25,-1.83697019872103D-16,3.14159265358979,       77P    142
6.28318530717959,0.,0.,0.;                                            77P    143
126,4,2,0,0,0,0,0.,0.,0.,1.5707963267949,1.5707963267949,             79P    144
3.14159265358979,3.14159265358979,3.14159265358979,1.,                79P    145
0.707106781186546,1.,0.707106781186548,1.,-5.75000000000001,          79P    146
17.25,0.,-5.75000000000001,17.25,0.75,-5.00000000000001,17.25,        79P    147
0.75,-4.25000000000001,17.25,0.75,-4.25000000000001,17.25,            79P    148
9.18485099360515D-17,0.,3.14159265358979,0.,0.,0.;                    79P    149
126,1,1,0,0,1,0,-50.3333333333333,-50.3333333333333,                  81P    150
3.23508695917264D-16,3.23508695917264D-16,1.,1.,                      81P    151
-4.25000000000001,17.25,0.,-4.25,-20.5,0.,-50.3333333333333,          81P    152
3.23508695917264D-16,0.,0.,0.;                                        81P    153
126,4,2,0,0,0,0,3.14159265358979,3.14159265358979,                    83P    154
3.14159265358979,4.71238898038469,4.71238898038469,                   83P    155
6.28318530717959,6.28318530717959,6.28318530717959,1.,                83P    156
0.707106781186548,1.,0.707106781186549,1.,-4.25,-20.5,                83P    157
9.18485099360515D-17,-4.25,-20.5,-0.75,-5.,-20.5,-0.75,-5.75,         83P    158
-20.5,-0.75,-5.75,-20.5,-1.83697019872103D-16,3.14159265358979,       83P    159
6.28318530717959,0.,0.,0.;                                            83P    160
126,4,2,0,0,0,0,0.,0.,0.,1.5707963267949,1.5707963267949,             85P    161
3.14159265358979,3.14159265358979,3.14159265358979,1.,                85P    162
0.707106781186549,1.,0.707106781186548,1.,-5.75,-20.5,0.,-5.75,       85P    163
-20.5,0.75,-5.,-20.5,0.75,-4.25,-20.5,0.75,-4.25,-20.5,               85P    164
9.18485099360515D-17,0.,3.14159265358979,0.,0.,0.;                    85P    165
128,1,8,1,2,0,1,0,0,1,-2.1742560440812D-16,-2.1742560440812D-16,      87P    166
69.3333333333333,69.3333333333333,-3.14159265358979,                  87P    167
-3.14159265358979,-3.14159265358979,-1.5707963267949,                 87P    168
-1.5707963267949,0.,0.,1.5707963267949,1.5707963267949,               87P    169
3.14159265358979,3.14159265358979,3.14159265358979,1.,1.,             87P    170
0.707106781186548,0.707106781186548,1.,1.,0.707106781186548,          87P    171
0.707106781186548,1.,1.,0.707106781186548,0.707106781186548,1.,       87P    172
1.,0.707106781186548,0.707106781186548,1.,1.,6.,-20.5,0.,6.,          87P    173
31.5,0.,6.,-20.5,-0.749999999999999,6.,31.5,-0.749999999999999,       87P    174
6.75,-20.5,-0.75,6.75,31.5,-0.75,7.5,-20.5,-0.749999999999999,        87P    175
7.5,31.5,-0.749999999999999,7.5,-20.5,0.,7.5,31.5,0.,7.5,-20.5,       87P    176
0.749999999999999,7.5,31.5,0.749999999999999,6.75,-20.5,0.75,         87P    177
6.75,31.5,0.75,6.,-20.5,0.749999999999999,6.,31.5,                    87P    178
0.749999999999999,6.,-20.5,0.,6.,31.5,0.,-2.1742560440812D-16,        87P    179
69.3333333333333,-3.14159265358979,3.14159265358979;                  87P    180
128,8,4,2,2,1,0,0,1,0,-3.14159265358979,-3.14159265358979,            89P    181
-3.14159265358979,-1.5707963267949,-1.5707963267949,0.,0.,            89P    182
1.5707963267949,1.5707963267949,3.14159265358979,                     89P    183
3.14159265358979,3.14159265358979,5.9211894646675D-16,                89P    184
5.9211894646675D-16,5.9211894646675D-16,1.5707963267949,              89P    185
1.5707963267949,3.14159265358979,3.14159265358979,                    89P    186
3.14159265358979,1.,0.707106781186549,1.,0.707106781186549,1.,        89P    187
0.707106781186549,1.,0.707106781186549,1.,0.707106781186548,          89P    188
0.500000000000001,0.707106781186548,0.500000000000001,                89P    189
0.707106781186548,0.500000000000001,0.707106781186548,                89P    190
0.500000000000001,0.707106781186548,1.,0.707106781186549,1.,          89P    191
0.707106781186549,1.,0.707106781186549,1.,0.707106781186549,1.,       89P    192
0.707106781186548,0.500000000000001,0.707106781186548,                89P    193
0.500000000000001,0.707106781186548,0.500000000000001,                89P    194
0.707106781186548,0.500000000000001,0.707106781186548,1.,             89P    195
0.707106781186549,1.,0.707106781186549,1.,0.707106781186549,1.,       89P    196
0.707106781186549,1.,-6.,31.5,-9.18485099360515D-17,-6.,31.5,         89P    197
-0.75,-6.75,31.5,-0.75,-7.5,31.5,-0.75,-7.5,31.5,0.,-7.5,31.5,        89P    198
0.75,-6.75,31.5,0.75,-6.,31.5,0.75,-6.,31.5,                          89P    199
9.18485099360515D-17,-6.,37.5,-9.18485099360515D-17,-6.,37.5,         89P    200
-0.75,-6.74999999999999,38.25,-0.75,-7.49999999999999,39.,-0.75,      89P    201
-7.49999999999999,39.,0.,-7.49999999999999,39.,0.75,                  89P    202
-6.74999999999999,38.25,0.75,-6.,37.5,0.75,-6.,37.5,                  89P    203
9.18485099360515D-17,1.11022302462516D-15,37.5,                       89P    204
-9.18485099360515D-17,1.11022302462516D-15,37.5,-0.75,                89P    205
1.11022302462516D-15,38.25,-0.75,1.11022302462516D-15,39.,-0.75,      89P    206
1.11022302462516D-15,39.,0.,1.11022302462516D-15,39.,0.75,            89P    207
1.11022302462516D-15,38.25,0.75,1.11022302462516D-15,37.5,0.75,       89P    208
1.11022302462516D-15,37.5,9.18485099360515D-17,6.,37.5,               89P    209
-9.18485099360515D-17,6.,37.5,-0.75,6.75,38.25,-0.75,7.5,39.,         89P    210
-0.75,7.5,39.,0.,7.5,39.,0.75,6.75,38.25,0.75,6.,37.5,0.75,6.,        89P    211
37.5,9.18485099360515D-17,6.,31.5,-9.18485099360515D-17,6.,31.5,      89P    212
-0.75,6.75,31.5,-0.75,7.5,31.5,-0.75,7.5,31.5,0.,7.5,31.5,0.75,       89P    213
6.75,31.5,0.75,6.,31.5,0.75,6.,31.5,9.18485099360515D-17,             89P    214
-3.14159265358979,3.14159265358979,5.9211894646675D-16,               89P    215
3.14159265358979;                                                     89P    216
128,1,8,1,2,0,1,0,0,1,-2.52181926283114D-16,                          91P    217
-2.52181926283114D-16,85.1666666666666,85.1666666666666,              91P    218
-3.14159265358979,-3.14159265358979,-3.14159265358979,                91P    219
-1.5707963267949,-1.5707963267949,0.,0.,1.5707963267949,              91P    220
1.5707963267949,3.14159265358979,3.14159265358979,                    91P    221
3.14159265358979,1.,1.,0.707106781186548,0.707106781186548,1.,        91P    222
1.,0.707106781186548,0.707106781186548,1.,1.,0.707106781186548,       91P    223
0.707106781186548,1.,1.,0.707106781186548,0.707106781186548,1.,       91P    224
1.,-6.,31.5,0.,-6.00000000000001,-32.375,0.,-6.,31.5,                 91P    225
-0.750000000000001,-6.00000000000001,-32.375,-0.750000000000001,      91P    226
-6.75,31.5,-0.750000000000001,-6.75000000000001,-32.375,              91P    227
-0.750000000000001,-7.5,31.5,-0.750000000000001,                      91P    228
-7.50000000000001,-32.375,-0.750000000000001,-7.5,31.5,0.,            91P    229
-7.50000000000001,-32.375,0.,-7.5,31.5,0.750000000000001,             91P    230
-7.50000000000001,-32.375,0.750000000000001,-6.75,31.5,               91P    231
0.750000000000001,-6.75000000000001,-32.375,0.750000000000001,        91P    232
-6.,31.5,0.750000000000001,-6.00000000000001,-32.375,                 91P    233
0.750000000000001,-6.,31.5,0.,-6.00000000000001,-32.375,0.,           91P    234
-2.52181926283114D-16,85.1666666666666,-3.14159265358979,             91P    235
3.14159265358979;                                                     91P    236
128,8,4,2,2,1,0,0,1,0,-3.14159265358979,-3.14159265358979,            93P    237
-3.14159265358979,-1.5707963267949,-1.5707963267949,0.,0.,            93P    238
1.5707963267949,1.5707963267949,3.14159265358979,                     93P    239
3.14159265358979,3.14159265358979,-3.14159265358979,                  93P    240
-3.14159265358979,-3.14159265358979,-1.5707963267949,                 93P    241
-1.5707963267949,8.66515531414756D-16,8.66515531414756D-16,           93P    242
8.66515531414756D-16,1.,0.707106781186546,1.,0.707106781186546,       93P    243
1.,0.707106781186546,1.,0.707106781186546,1.,0.707106781186547,       93P    244
0.499999999999999,0.707106781186547,0.499999999999999,                93P    245
0.707106781186547,0.499999999999999,0.707106781186547,                93P    246
0.499999999999999,0.707106781186547,1.,0.707106781186546,1.,          93P    247
0.707106781186546,1.,0.707106781186546,1.,0.707106781186546,1.,       93P    248
0.707106781186547,0.499999999999999,0.707106781186547,                93P    249
0.499999999999999,0.707106781186547,0.499999999999999,                93P    250
0.707106781186547,0.499999999999999,0.707106781186547,1.,             93P    251
0.707106781186546,1.,0.707106781186546,1.,0.707106781186546,1.,       93P    252
0.707106781186546,1.,4.25,-32.375,-9.18485099360515D-17,4.25,         93P    253
-32.375,-0.75,5.,-32.375,-0.75,5.75,-32.375,-0.75,5.75,-32.375,       93P    254
0.,5.75,-32.375,0.75,5.,-32.375,0.75,4.25,-32.375,0.75,4.25,          93P    255
-32.375,9.18485099360515D-17,4.25,-37.5,-9.18485099360515D-17,        93P    256
4.25,-37.5,-0.75,5.,-38.25,-0.75,5.75,-39.,-0.75,5.75,-39.,0.,        93P    257
5.75,-39.,0.75,5.,-38.25,0.75,4.25,-37.5,0.75,4.25,-37.5,             93P    258
9.18485099360515D-17,-0.875000000000002,-37.5,                        93P    259
-9.18485099360515D-17,-0.875000000000002,-37.5,-0.75,                 93P    260
-0.875000000000002,-38.25,-0.75,-0.875000000000002,-39.,-0.75,        93P    261
-0.875000000000002,-39.,0.,-0.875000000000002,-39.,0.75,              93P    262
-0.875000000000002,-38.25,0.75,-0.875000000000002,-37.5,0.75,         93P    263
-0.875000000000002,-37.5,9.18485099360515D-17,-6.00000000000001,      93P    264
-37.5,-9.18485099360515D-17,-6.00000000000001,-37.5,-0.75,            93P    265
-6.75000000000001,-38.25,-0.75,-7.50000000000001,-39.,-0.75,          93P    266
-7.50000000000001,-39.,0.,-7.50000000000001,-39.,0.75,                93P    267
-6.75000000000001,-38.25,0.75,-6.00000000000001,-37.5,0.75,           93P    268
-6.00000000000001,-37.5,9.18485099360515D-17,-6.00000000000001,       93P    269
-32.375,-9.18485099360515D-17,-6.00000000000001,-32.375,-0.75,        93P    270
-6.75000000000001,-32.375,-0.75,-7.50000000000001,-32.375,-0.75,      93P    271
-7.50000000000001,-32.375,0.,-7.50000000000001,-32.375,0.75,          93P    272
-6.75000000000001,-32.375,0.75,-6.00000000000001,-32.375,0.75,        93P    273
-6.00000000000001,-32.375,9.18485099360515D-17,                       93P    274
-3.14159265358979,3.14159265358979,-3.14159265358979,                 93P    275
8.66515531414756D-16;                                                 93P    276
128,1,8,1,2,0,1,0,0,1,-7.69468277488716D-17,                          95P    277
-7.69468277488716D-17,66.1666666666666,66.1666666666666,              95P    278
-3.14159265358979,-3.14159265358979,-3.14159265358979,                95P    279
-1.5707963267949,-1.5707963267949,0.,0.,1.5707963267949,              95P    280
1.5707963267949,3.14159265358979,3.14159265358979,                    95P    281
3.14159265358979,1.,1.,0.707106781186548,0.707106781186548,1.,        95P    282
1.,0.707106781186548,0.707106781186548,1.,1.,0.707106781186548,       95P    283
0.707106781186548,1.,1.,0.707106781186548,0.707106781186548,1.,       95P    284
1.,4.25,-32.375,0.,4.25,17.25,0.,4.25,-32.375,                        95P    285
-0.750000000000001,4.25,17.25,-0.750000000000001,5.,-32.375,          95P    286
-0.750000000000001,5.,17.25,-0.750000000000001,5.75,-32.375,          95P    287
-0.750000000000001,5.75,17.25,-0.750000000000001,5.75,-32.375,        95P    288
0.,5.75,17.25,0.,5.75,-32.375,0.750000000000001,5.75,17.25,           95P    289
0.750000000000001,5.,-32.375,0.750000000000001,5.,17.25,              95P    290
0.750000000000001,4.25,-32.375,0.750000000000001,4.25,17.25,          95P    291
0.750000000000001,4.25,-32.375,0.,4.25,17.25,0.,                      95P    292
-7.69468277488716D-17,66.1666666666666,-3.14159265358979,             95P    293
3.14159265358979;                                                     95P    294
128,8,4,2,2,1,0,0,1,0,-3.14159265358979,-3.14159265358979,            97P    295
-3.14159265358979,-1.5707963267949,-1.5707963267949,0.,0.,            97P    296
1.5707963267949,1.5707963267949,3.14159265358979,                     97P    297
3.14159265358979,3.14159265358979,0.,0.,0.,1.5707963267949,           97P    298
1.5707963267949,3.14159265358979,3.14159265358979,                    97P    299
3.14159265358979,1.,0.707106781186548,1.,0.707106781186546,1.,        97P    300
0.707106781186546,1.,0.707106781186548,1.,0.707106781186548,0.5,      97P    301
0.707106781186548,0.499999999999999,0.707106781186548,                97P    302
0.499999999999999,0.707106781186548,0.5,0.707106781186548,1.,         97P    303
0.707106781186548,1.,0.707106781186546,1.,0.707106781186546,1.,       97P    304
0.707106781186548,1.,0.707106781186548,0.5,0.707106781186548,         97P    305
0.499999999999999,0.707106781186548,0.499999999999999,                97P    306
0.707106781186548,0.5,0.707106781186548,1.,0.707106781186548,1.,      97P    307
0.707106781186546,1.,0.707106781186546,1.,0.707106781186548,1.,       97P    308
-4.25000000000001,17.25,-9.18485099360515D-17,-4.25000000000001,      97P    309
17.25,-0.75,-5.00000000000001,17.25,-0.75,-5.75000000000001,          97P    310
17.25,-0.75,-5.75000000000001,17.25,0.,-5.75000000000001,17.25,       97P    311
0.75,-5.00000000000001,17.25,0.75,-4.25000000000001,17.25,0.75,       97P    312
-4.25000000000001,17.25,9.18485099360515D-17,-4.25000000000001,       97P    313
21.5,-9.18485099360515D-17,-4.25000000000001,21.5,-0.75,              97P    314
-5.00000000000001,22.25,-0.75,-5.75000000000001,23.,-0.75,            97P    315
-5.75000000000001,23.,0.,-5.75000000000001,23.,0.75,                  97P    316
-5.00000000000001,22.25,0.75,-4.25000000000001,21.5,0.75,             97P    317
-4.25000000000001,21.5,9.18485099360515D-17,                          97P    318
-3.95516952522712D-15,21.5,-9.18485099360515D-17,                     97P    319
-3.95516952522712D-15,21.5,-0.75,-3.95516952522712D-15,22.25,         97P    320
-0.75,-3.95516952522712D-15,23.,-0.75,-3.95516952522712D-15,23.,      97P    321
0.,-3.95516952522712D-15,23.,0.75,-3.95516952522712D-15,22.25,        97P    322
0.75,-3.95516952522712D-15,21.5,0.75,-3.95516952522712D-15,21.5,      97P    323
9.18485099360515D-17,4.25,21.5,-9.18485099360515D-17,4.25,21.5,       97P    324
-0.75,5.,22.25,-0.75,5.75,23.,-0.75,5.75,23.,0.,5.75,23.,0.75,        97P    325
5.,22.25,0.75,4.25,21.5,0.75,4.25,21.5,9.18485099360515D-17,          97P    326
4.25,17.25,-9.18485099360515D-17,4.25,17.25,-0.75,5.,17.25,           97P    327
-0.75,5.75,17.25,-0.75,5.75,17.25,0.,5.75,17.25,0.75,5.,17.25,        97P    328
0.75,4.25,17.25,0.75,4.25,17.25,9.18485099360515D-17,                 97P    329
-3.14159265358979,3.14159265358979,0.,3.14159265358979;               97P    330
128,1,8,1,2,0,1,0,0,1,-3.23508695917264D-16,                          99P    331
-3.23508695917264D-16,50.3333333333333,50.3333333333333,              99P    332
-3.14159265358979,-3.14159265358979,-3.14159265358979,                99P    333
-1.5707963267949,-1.5707963267949,0.,0.,1.5707963267949,              99P    334
1.5707963267949,3.14159265358979,3.14159265358979,                    99P    335
3.14159265358979,1.,1.,0.707106781186548,0.707106781186548,1.,        99P    336
1.,0.707106781186548,0.707106781186548,1.,1.,0.707106781186548,       99P    337
0.707106781186548,1.,1.,0.707106781186548,0.707106781186548,1.,       99P    338
1.,-4.25000000000001,17.25,0.,-4.25,-20.5,0.,-4.25000000000001,       99P    339
17.25,-0.749999999999999,-4.25,-20.5,-0.749999999999999,              99P    340
-5.00000000000001,17.25,-0.75,-5.,-20.5,-0.75,-5.75000000000001,      99P    341
17.25,-0.749999999999999,-5.75,-20.5,-0.749999999999999,              99P    342
-5.75000000000001,17.25,0.,-5.75,-20.5,0.,-5.75000000000001,          99P    343
17.25,0.749999999999999,-5.75,-20.5,0.749999999999999,                99P    344
-5.00000000000001,17.25,0.75,-5.,-20.5,0.75,-4.25000000000001,        99P    345
17.25,0.749999999999999,-4.25,-20.5,0.749999999999999,                99P    346
-4.25000000000001,17.25,0.,-4.25,-20.5,0.,-3.23508695917264D-16,      99P    347
50.3333333333333,-3.14159265358979,3.14159265358979;                  99P    348
128,1,1,1,1,0,0,1,0,0,-0.076,-0.076,0.076,0.076,                     101P    349
-0.0760000000000001,-0.0760000000000001,0.0760000000000001,          101P    350
0.0760000000000001,1.,1.,1.,1.,7.51,-20.5,-0.76,7.51,-20.5,0.76,     101P    351
5.99,-20.5,-0.76,5.99,-20.5,0.76,-0.076,0.076,                       101P    352
-0.0760000000000001,0.0760000000000001;                              101P    353
128,1,1,1,1,0,0,1,0,0,-0.076,-0.076,0.076,0.076,-0.076,-0.076,       103P    354
0.076,0.076,1.,1.,1.,1.,-5.76,-20.5,0.76,-5.76,-20.5,-0.76,          103P    355
-4.24,-20.5,0.76,-4.24,-20.5,-0.76,-0.076,0.076,-0.076,0.076;        103P    356
502,16,7.5,-20.5,0.,6.,-20.5,0.,6.,31.5,0.,7.5,31.5,0.,-6.,31.5,     105P    357
9.18485099360515D-17,-7.5,31.5,0.,-6.00000000000001,-32.375,0.,      105P    358
-7.50000000000001,-32.375,0.,4.25,-32.375,9.18485099360515D-17,      105P    359
5.75,-32.375,0.,4.25,17.25,0.,5.75,17.25,0.,-4.25000000000001,       105P    360
17.25,9.18485099360515D-17,-5.75000000000001,17.25,0.,-4.25,         105P    361
-20.5,0.,-5.75,-20.5,0.;                                             105P    362
504,23,41,105,1,105,2,43,105,2,105,1,45,105,2,105,3,47,105,3,        107P    363
105,4,49,105,4,105,3,51,105,3,105,5,53,105,5,105,6,55,105,6,105,     107P    364
5,57,105,5,105,7,59,105,7,105,8,61,105,8,105,7,63,105,7,105,9,       107P    365
65,105,9,105,10,67,105,10,105,9,69,105,9,105,11,71,105,11,105,       107P    366
12,73,105,12,105,11,75,105,11,105,13,77,105,13,105,14,79,105,14,     107P    367
105,13,81,105,13,105,15,83,105,15,105,16,85,105,16,105,15;           107P    368
406,1,6HSolid1;                                                      109P    369
314,74.5098039215686,73.7254901960784,72.9411764705882,;             111P    370
S      1G      3D    112P    370                                        T      1
